PathFileType	4	(X/Y/Z)	C:/Users/opensim2020/Desktop/walking_exp_matlab/subject01_walking12_straight_04.trc	
DataRate	CameraRate	NumFrames	NumMarkers	Units	OrigDataRate	OrigDataStartFrame	OrigNumFrames	
100.00	100.00	7	44	mm	100.00	2479	172	
Frame#	Time	LFHD			RFHD			LBHD			RBHD			C7			T10			CLAV			STRN			RBAK			LSHO			LUPA			LELB			LFRM			LWRA			LWRB			LFIN			RSHO			RUPA			RELB			RFRM			RWRA			RWRB			RFIN			LASI			RASI			LPSI			RPSI			LTHI			LKNE			LTIB			LANK			LHEE			LTOE			RTHI			RKNE			RTIB			RANK			RHEE			RTOE			*39			*40			*41			*42			*43			
		X1	Y1	Z1	X2	Y2	Z2	X3	Y3	Z3	X4	Y4	Z4	X5	Y5	Z5	X6	Y6	Z6	X7	Y7	Z7	X8	Y8	Z8	X9	Y9	Z9	X10	Y10	Z10	X11	Y11	Z11	X12	Y12	Z12	X13	Y13	Z13	X14	Y14	Z14	X15	Y15	Z15	X16	Y16	Z16	X17	Y17	Z17	X18	Y18	Z18	X19	Y19	Z19	X20	Y20	Z20	X21	Y21	Z21	X22	Y22	Z22	X23	Y23	Z23	X24	Y24	Z24	X25	Y25	Z25	X26	Y26	Z26	X27	Y27	Z27	X28	Y28	Z28	X29	Y29	Z29	X30	Y30	Z30	X31	Y31	Z31	X32	Y32	Z32	X33	Y33	Z33	X34	Y34	Z34	X35	Y35	Z35	X36	Y36	Z36	X37	Y37	Z37	X38	Y38	Z38	X39	Y39	Z39	X40	Y40	Z40	X41	Y41	Z41	X42	Y42	Z42	X43	Y43	Z43	X44	Y44	Z44	

108	1.070	1590.40100	-288.27112	1650.16064	1477.47021	-301.84674	1652.95288	1583.24182	-165.20767	1632.65747	1462.80457	-176.33691	1635.46582	1542.55469	-88.99628	1433.36682	1522.75964	-48.27790	1137.88257	1532.57434	-229.46025	1359.36951	1530.10156	-270.16055	1206.33044	1459.25073	-25.76963	1240.54822	1697.10181	-176.01852	1385.68018	1780.72449	-157.66200	1201.40833	1784.72595	-160.99976	1048.08777	1808.55811	-227.17894	953.93396	1791.62646	-336.35727	867.02069	1812.37659	-283.53308	845.98553	1826.34875	-347.32571	793.45630	1383.71094	-161.66965	1395.51599	1281.29333	-83.01537	1204.47925	1275.09717	-72.03755	1078.54089	1243.82178	-97.31948	959.57397	1261.83569	-177.32251	842.90570	1223.34766	-133.65677	843.54181	1224.32666	-170.92924	766.89783	1620.84460	-230.52020	933.77118	1403.71985	-223.64824	938.22363	1571.69727	-43.29044	940.41400	1426.54785	-41.83494	941.01508	1665.64246	-206.56543	598.58063	1645.79968	-197.36823	463.53000	1653.10413	-131.68242	285.03897	1602.06628	-76.10036	74.23095	1552.82483	-24.40728	49.48211	1597.70776	-220.68654	31.58463	1329.32458	-257.85498	614.19604	1343.96326	-301.80304	462.71732	1350.83386	-175.99532	339.54480	1405.93579	-54.84756	177.08655	1465.61621	-0.94371	166.23769	1387.81628	-142.71532	68.07750	1500.27234	-298.15311	1688.04358	-3101.97510	1973.14917	1023.49011	-3140.77661	2012.48962	1022.04327						 
109	1.080	1589.70862	-298.72064	1650.40686	1476.71887	-312.09464	1652.89429	1582.78662	-175.61664	1633.08191	1462.27893	-186.58545	1635.61609	1542.60840	-99.03929	1433.85059	1523.05566	-57.98989	1138.34656	1532.47498	-239.37399	1359.53015	1530.34277	-279.85150	1206.53918	1459.69934	-35.57938	1240.83350	1697.01965	-186.15977	1386.35803	1781.41272	-168.26195	1202.36572	1786.19055	-173.88219	1048.95593	1810.13281	-243.21906	956.78943	1793.42749	-355.40707	873.98932	1814.02417	-303.30829	851.04419	1828.43799	-368.96307	801.08704	1383.66553	-171.28307	1395.71948	1281.83630	-91.22810	1204.92676	1275.79504	-79.42959	1079.17261	1244.02051	-102.39061	960.08508	1260.93970	-180.46039	841.78564	1222.82629	-136.54996	843.41809	1223.29224	-172.21878	766.02045	1621.47302	-240.34743	934.27924	1404.27490	-233.49409	938.66742	1571.44836	-52.51285	940.92334	1426.20984	-51.66659	941.58643	1665.92261	-211.42987	598.55872	1646.26929	-200.18024	463.51349	1653.06299	-133.13322	285.55017	1601.63574	-76.48409	74.90462	1552.22144	-24.65130	50.62268	1597.74414	-220.70125	31.43752	1329.46863	-271.51086	616.14471	1345.12891	-317.80753	464.64417	1350.98511	-197.64793	335.04761	1406.01563	-84.07627	167.22702	1466.11072	-30.18888	153.37450	1387.25159	-178.44557	64.59581	1499.44202	-308.28690	1687.91736	-3101.89038	1973.13220	1023.51569	-3140.66162	2012.58276	1022.02625						 
110	1.090	1588.93433	-309.09601	1650.55017	1475.95886	-322.30688	1652.79248	1582.25598	-185.95355	1633.40698	1461.37988	-196.84546	1635.75635	1542.44788	-109.09933	1434.08081	1523.30469	-67.57291	1138.76416	1532.23303	-249.22412	1359.63953	1530.51489	-289.54028	1206.64209	1460.04041	-45.35194	1241.05151	1696.88635	-196.26419	1386.96960	1781.93774	-178.93991	1203.16492	1787.48730	-186.66322	1049.72522	1811.63318	-259.03445	959.71918	1795.12097	-374.04547	881.03009	1815.60291	-322.89572	856.29858	1830.34216	-390.43405	808.92847	1383.42395	-181.16194	1395.75513	1282.36804	-99.40366	1205.40186	1276.09448	-86.56980	1080.00293	1244.11206	-107.52293	960.46429	1260.03796	-183.67459	840.71124	1222.55981	-139.33446	843.39709	1222.20313	-173.60390	765.20880	1621.77148	-249.45677	934.23364	1404.75354	-243.30495	939.21118	1571.08936	-61.77092	941.27936	1425.80933	-61.43402	941.91895	1666.19897	-216.43896	598.62555	1646.62561	-203.23425	463.56827	1652.85791	-134.86169	286.10626	1601.31116	-76.70471	75.76870	1551.77917	-25.04017	51.91964	1597.69519	-220.77504	31.42284	1329.51758	-284.82388	617.88702	1346.09888	-333.12000	466.33936	1351.36426	-219.48941	330.25220	1405.86768	-114.12881	157.17215	1465.20435	-61.80557	139.37001	1386.71973	-214.63531	61.37538	1498.56348	-318.66867	1687.99146	-3102.17969	1972.99561	1023.43610	-3140.83154	2012.45874	1022.07495						 
111	1.100	1588.13074	-319.42883	1650.66309	1475.08264	-332.44281	1652.71252	1581.70203	-196.31305	1633.64001	1461.13354	-206.83829	1635.76648	1542.27283	-119.10495	1434.34595	1523.39624	-77.17088	1139.09021	1532.02563	-259.18616	1359.71753	1530.61731	-299.23215	1206.62402	1460.29150	-55.10950	1241.21350	1696.64417	-206.37209	1387.44580	1782.40698	-189.65111	1203.91272	1788.60608	-199.33464	1050.48022	1813.00024	-274.68768	962.72125	1796.73059	-392.51111	888.23859	1817.05066	-342.14767	861.65869	1832.17139	-411.28360	816.95624	1383.20020	-191.01192	1395.72461	1282.77417	-107.68431	1205.65808	1276.77454	-94.05188	1080.49670	1244.16968	-112.79454	960.91864	1259.06152	-187.06779	839.75934	1222.49792	-141.59270	843.35809	1221.18591	-175.24817	764.46350	1622.01538	-258.46198	934.08820	1405.04883	-253.19731	939.49646	1570.63086	-70.94012	941.45551	1425.24451	-71.27911	942.12939	1666.46228	-221.42793	598.42609	1646.82349	-206.46173	463.50580	1652.64954	-136.70731	286.69580	1601.12317	-77.22953	76.85729	1551.24902	-25.46563	53.02266	1597.69348	-220.78693	31.40640	1329.56641	-297.80679	619.34613	1347.30957	-347.41818	467.78671	1351.48169	-241.12811	325.50079	1405.74841	-144.60414	147.13350	1464.77759	-93.65937	125.74033	1385.93652	-251.08643	58.26561	1497.70166	-328.96600	1687.93420	-3101.89746	1973.13513	1023.49866	-3140.76807	2012.52747	1022.10822						 
112	1.110	1587.28735	-329.71957	1650.68396	1474.21655	-342.65771	1652.55139	1581.08838	-206.55902	1633.77209	1460.46960	-216.98230	1635.62610	1542.02234	-129.14919	1434.50244	1523.34973	-86.74285	1139.33484	1531.71338	-269.16376	1359.66492	1530.70361	-308.92093	1206.64038	1460.34033	-64.86330	1241.31543	1696.33948	-216.49492	1387.83411	1782.76184	-200.42729	1204.53345	1789.65332	-212.00252	1051.11584	1814.20728	-290.15909	965.69983	1798.18506	-410.37534	895.42639	1818.29395	-361.13968	867.04559	1833.73132	-431.76279	824.94916	1382.78882	-200.85410	1395.59619	1283.02002	-116.02206	1205.81079	1276.93091	-101.63032	1080.93481	1244.16455	-118.24387	961.26770	1258.05933	-190.56123	838.82214	1221.75659	-145.04161	843.25153	1220.17627	-177.10210	763.84644	1622.20313	-267.44067	933.83569	1405.18115	-263.07895	939.60901	1570.08350	-80.14194	941.47815	1424.77344	-81.00541	942.18365	1666.27185	-226.86922	598.49396	1647.05725	-209.90633	463.54300	1652.53015	-138.62929	287.40686	1600.86462	-77.64219	77.78422	1550.87720	-25.71695	54.51302	1597.67737	-220.86804	31.38784	1329.63672	-310.28699	620.75128	1348.21765	-361.14575	469.15088	1351.60815	-262.35342	320.88373	1405.50049	-175.67627	136.97777	1464.46985	-125.84281	112.35904	1385.11609	-287.94595	55.52625	1496.78528	-338.94019	1687.65295	-3102.06519	1973.05225	1023.54651	-3140.83936	2012.47449	1022.19043						 
113	1.120	1586.37122	-340.01074	1650.59583	1473.26636	-352.78006	1652.29114	1580.38306	-216.83557	1633.81580	1459.82251	-226.99252	1635.51721	1541.62988	-139.17685	1434.56689	1523.17651	-96.33562	1139.47473	1531.41882	-279.13174	1359.68140	1530.69873	-318.66025	1206.40503	1460.33252	-74.61782	1241.33496	1696.00415	-226.58820	1388.17749	1782.93591	-211.30745	1205.05078	1790.56921	-224.57278	1051.75537	1815.32642	-305.40430	968.71423	1799.55200	-428.00616	902.66724	1819.34863	-379.72195	872.51898	1835.15601	-451.64481	832.97955	1382.42810	-210.72839	1395.23022	1283.11926	-124.81377	1205.67542	1277.13892	-109.22794	1081.29333	1243.97339	-123.88867	961.55804	1257.07483	-194.19481	837.92383	1221.16382	-148.60783	843.18835	1218.76758	-179.60976	763.51959	1622.37476	-276.33105	933.51398	1405.27417	-273.02155	939.64899	1569.49951	-89.28083	941.37311	1424.13879	-90.85528	941.99866	1666.12305	-232.40503	598.52313	1647.24976	-213.55351	463.61057	1652.50366	-140.63010	288.14050	1600.75525	-78.05972	79.01465	1550.54895	-26.07358	56.13342	1597.65625	-220.91736	31.37185	1329.79138	-322.39749	621.60004	1348.98682	-374.00684	470.19464	1351.32336	-283.46240	316.51282	1404.63977	-207.51196	127.51989	1463.42139	-158.93153	99.76283	1384.31360	-324.53986	53.14989	1495.83020	-349.13049	1687.48950	-3102.04614	1973.02429	1023.81885	-3140.82764	2012.42151	1021.93146						 
114	1.130	1585.38818	-350.26062	1650.45154	1472.23047	-362.86090	1651.94910	1579.62891	-227.05069	1633.78186	1458.69910	-237.19153	1635.28320	1541.17896	-149.22340	1434.52368	1522.89417	-105.91023	1139.51685	1530.90613	-289.01147	1359.39209	1530.56506	-328.36670	1206.11145	1460.17517	-84.40628	1241.28259	1695.59106	-236.64462	1388.42688	1783.03162	-222.22266	1205.53271	1791.46606	-237.12712	1052.40002	1816.25500	-320.54520	971.77173	1800.68542	-445.19290	909.76990	1820.26245	-397.96039	878.03656	1836.36987	-471.25558	840.94434	1381.96582	-220.75189	1394.96631	1283.17419	-133.39796	1205.65747	1277.45227	-116.90948	1081.58826	1243.67603	-129.61925	962.02539	1256.00488	-198.27048	837.25305	1220.60486	-152.15353	843.15265	1218.31116	-181.29625	762.54285	1622.52039	-285.19543	933.15192	1405.28491	-283.06168	939.61224	1568.76819	-98.44967	941.17828	1423.53699	-100.69435	941.75177	1665.95203	-238.10510	598.52594	1647.35620	-217.42691	463.75543	1652.49170	-142.70067	288.92700	1600.59924	-78.50097	80.25007	1550.36890	-26.36618	58.06953	1597.85706	-220.77496	31.68967	1330.14441	-333.82648	622.02570	1349.76514	-385.99197	470.77023	1351.35852	-304.17670	312.45093	1403.48657	-239.36096	118.81728	1462.24915	-192.86490	88.63385	1383.33533	-361.11273	51.38605	1494.73022	-359.51697	1687.27686	-3101.96045	1973.11804	1023.44513	-3140.73999	2012.52625	1021.98840						 
